<?xml version="1.0" encoding="utf-8"?>
<!-- Generator: Adobe Illustrator 14.0.0, SVG Export Plug-In . SVG Version: 6.00 Build 43363)  -->
<!DOCTYPE svg PUBLIC "-//W3C//DTD SVG 1.1//EN" "http://www.w3.org/Graphics/SVG/1.1/DTD/svg11.dtd">
<svg version="1.1" id="Ebene_1" xmlns="http://www.w3.org/2000/svg" xmlns:xlink="http://www.w3.org/1999/xlink" x="0px" y="0px"
	 width="128px" height="128px" viewBox="0 0 128 128" enable-background="new 0 0 128 128" xml:space="preserve">
<g transform="translate(0.000000,395.000000) scale(0.100000,-0.100000)">
	<path fill="#FFAF4C" d="M531.348,3850.576c-241.411-45.244-243.198-45.84-259.57-63.403c-8.633-9.229-15.776-26.792-15.776-38.696
		c0-5.361,2.085-17.266,4.761-26.196c2.383-8.931,6.846-27.686,9.824-41.675c5.356-24.707,10.718-46.733,19.648-80.371
		c9.521-36.021,13.691-52.988,17.563-69.956c7.441-32.744,14.287-59.536,18.154-71.44c2.085-6.548,4.766-17.266,5.957-23.813
		c2.974-19.053,11.011-44.058,16.963-52.69c7.744-11.011,24.707-20.835,40.781-23.516c13.398-2.085,41.084,2.383,84.839,13.394
		c9.824,2.383,18.457,3.872,19.648,3.276s79.775,13.394,174.727,31.255c117.285,21.733,176.523,34.233,184.863,38.403
		c6.543,3.271,15.479,10.415,19.355,15.776c14.277,19.048,15.771,32.744,8.33,81.265c-1.787,9.824-4.463,30.659-6.26,46.138
		c-1.777,15.479-4.453,37.808-5.947,49.116c-1.494,11.611-4.17,32.446-5.947,46.733c-19.355,159.556-20.254,165.21-27.09,178.608
		c-10.127,19.941-33.34,32.446-58.945,31.851C769.785,3894.335,659.053,3874.687,531.348,3850.576z M743.594,3723.173
		c14.59-6.846,34.229-26.792,42.559-43.164c8.633-16.67,8.936-46.436,0.303-65.786c-11.904-26.792-40.186-48.223-67.568-51.797
		c-12.803-1.489-40.195,4.766-49.717,11.313c-4.17,3.271-8.623,5.654-10.117,5.654c-4.17,0-19.648,19.351-26.792,33.34
		c-12.505,24.707-8.633,58.643,9.229,83.35c10.425,14.287,30.659,28.281,47.026,32.446
		C702.207,3732.104,730.791,3729.125,743.594,3723.173z M513.486,3694.296c42.866-21.133,65.786-65.786,56.265-110.137
		c-7.744-37.212-26.792-60.43-62.217-76.504c-19.346-8.633-22.324-9.229-42.866-7.441c-48.223,4.463-86.025,36.611-94.063,80.371
		c-8.335,44.058,8.335,83.35,45.542,107.461C444.131,3706.503,483.423,3708.881,513.486,3694.296z"/>
	<path fill="#FFAF4C" d="M884.092,3794.018c0-9.229,30.068-242.603,31.553-244.092c2.979-2.979,28.877,13.096,42.871,26.494
		c65.488,63.999,44.941,174.731-39.297,211.05C900.762,3795.209,884.092,3798.486,884.092,3794.018z"/>
	<path fill="#FFAF4C" d="M215.518,3662.744c-29.473-22.324-48.818-62.51-48.818-100.913c0-55.962,36.313-106.27,88.408-122.344
		c20.835-6.548,39.59-7.739,39.59-2.974c0,3.569-48.818,199.736-55.366,222.656c-2.681,8.34-5.361,15.483-6.548,15.483
		C231.592,3674.653,223.853,3669.292,215.518,3662.744z"/>
	<path fill="#EA466A" d="M221.47,3405.551c-2.979-2.08-13.691-8.335-23.516-13.691c-44.355-24.111-43.164-23.218-43.164-36.313
		c0-21.138-18.755-41.084-38.398-41.084c-11.016,0-25.898,7.744-33.638,17.861l-7.739,9.824l-35.127-20.239
		c-19.644-11.016-36.016-20.542-36.611-21.138c-5.659-5.361,21.729-36.904,45.244-52.09c19.053-12.51,54.18-22.031,72.632-19.951
		c9.526,1.191,11.313,0.303,16.372-8.633c3.276-5.352,6.25-9.824,6.846-9.824c0.894,0,65.19,35.43,73.823,40.781
		c1.191,0.605,0,4.18-2.378,7.744c-6.255,8.936-5.659,11.904,4.165,26.494c13.989,20.84,18.755,35.127,20.244,62.212
		c1.191,18.457,0.298,29.771-3.276,42.271C231.294,3408.828,229.507,3410.913,221.47,3405.551z"/>
	<path fill="#EA466A" d="M1046.035,3392.753c-3.877-8.335-5.371-19.946-5.371-42.568c-0.293-29.468,0.303-32.446,9.824-52.686
		c5.361-11.914,12.5-23.818,15.488-26.494c5.059-4.463,5.059-5.361,0.586-14.883c-2.676-5.361-4.453-10.713-3.574-11.318
		c0.605-0.586,17.266-10.117,36.914-20.83l35.43-19.951l5.352,6.855c2.988,3.867,5.361,7.734,5.361,9.219
		c0,1.191,6.26,2.09,14.287,2.09c18.164,0,47.93,7.148,63.711,15.176c15.771,8.047,41.367,32.451,48.809,46.143
		c5.059,9.521,5.059,11.318,1.191,13.701c-2.383,1.484-18.75,10.708-36.309,20.532l-32.148,18.159l-7.744-9.229
		c-19.346-22.92-43.164-23.818-63.408-2.085c-4.766,5.063-7.441,12.207-8.633,22.329c-1.484,16.372,0.303,14.883-57.744,47.627
		l-16.963,9.526L1046.035,3392.753z"/>
	<path fill="#4562DE" d="M443.237,3325.478c-5.654-3.569-12.798-11.606-15.776-17.563c-5.952-10.708-5.952-11.313,2.383-145.259
		c4.463-74.121,9.224-137.832,10.713-141.406c1.191-3.262,7.144-10.703,13.101-15.771l11.011-9.521h178.311h178.311l10.41,8.926
		c5.664,5.059,11.611,13.398,13.398,18.75c1.484,5.361,6.543,69.365,11.016,142.295c8.037,132.461,8.037,133.057,2.08,142.881
		c-2.979,5.654-10.117,13.101-15.771,16.67l-9.824,6.846H642.978H453.359L443.237,3325.478z"/>
	<path fill="#EA466A" d="M206.885,3217.421c-13.101-7.441-27.983-15.479-33.34-17.559c-5.063-2.383-10.122-5.664-11.016-7.148
		c-2.974-4.463,23.813-38.105,40.483-50.313c8.633-6.543,22.92-15.469,31.553-19.941c19.053-9.219,56.265-19.346,72.637-19.346
		h11.309l-0.298,32.148c-0.596,46.436-1.489,49.111-16.968,51.797c-19.346,3.271-42.861,15.186-55.068,27.686
		c-5.952,6.25-11.016,12.5-11.016,13.984C235.161,3232.9,231.592,3231.416,206.885,3217.421z"/>
	<path fill="#EA466A" d="M376.558,3220.097c-12.5-6.543-20.537-13.086-29.766-24.102l-8.037-9.531l3.867-54.473
		c3.574-53.887,3.872-54.18,12.207-62.217c9.824-9.229,39.59-24.404,43.164-22.324c1.484,0.889,0.293,36.914-2.681,80.068
		c-2.681,42.871-5.063,82.754-5.063,88.125C389.951,3226.347,389.062,3226.65,376.558,3220.097z"/>
	<path fill="#EA466A" d="M1037.988,3211.767c-12.207-14.58-31.855-25.01-55.664-29.766l-16.367-3.574l-2.383-20.537
		c-1.191-11.309-1.787-29.18-1.484-39.893l0.889-19.346l9.814-0.898c12.813-1.191,51.504,8.633,72.344,18.457
		c22.92,11.016,49.414,33.047,63.105,52.393c8.926,12.803,10.42,16.67,7.441,19.648c-2.09,1.787-18.164,10.713-35.43,19.941
		l-31.543,16.67L1037.988,3211.767z"/>
	<path fill="#EA466A" d="M890.049,3206.708c0-5.361-2.08-38.701-4.463-73.818c-2.383-35.137-4.473-70.557-4.473-78.301
		c0-13.389,0.303-14.277,6.855-12.5c11.006,3.281,38.398,20.547,42.559,26.797c2.383,3.867,5.059,25.293,7.441,58.34l3.574,52.393
		l-6.846,9.824c-7.744,10.713-30.957,26.787-39.287,26.787C891.23,3216.23,890.049,3213.847,890.049,3206.708z"/>
	<path fill="#4562DE" d="M494.141,2925.996V2900.4l47.031,0.889l46.733,0.898v23.809v23.818l-46.733,0.889l-47.031,0.898V2925.996z"
		/>
	<path fill="#4562DE" d="M710.547,2949.511c-1.191-1.191-2.08-12.793-2.08-25.596V2900.4l47.031,0.889l46.729,0.898v23.809v23.818
		l-44.941,0.889C732.871,2951.005,711.738,2950.41,710.547,2949.511z"/>
	<path fill="#4562DE" d="M494.141,2859.023v-23.809h47.627h47.627v23.809v23.809h-47.627h-47.627V2859.023z"/>
	<path fill="#4562DE" d="M708.467,2859.023v-23.809h47.627h47.627v23.809v23.809h-47.627h-47.627V2859.023z"/>
	<path fill="#4562DE" d="M494.141,2797.109c0-16.67-1.191-22.031-7.144-29.766c-9.229-12.803-16.074-36.016-11.016-39.004
		c5.356-3.574,125.024-3.574,131.274-0.293c5.356,2.676,5.356,4.16,1.489,16.67c-2.085,7.139-7.441,17.861-11.611,23.213
		c-5.654,7.744-7.739,13.994-8.335,28.887l-0.894,19.043l-46.733,0.898l-47.031,0.889V2797.109z"/>
	<path fill="#4562DE" d="M708.467,2797.109c0-16.367-1.494-22.031-7.139-30.664c-8.34-12.207-15.781-34.531-12.51-37.803
		c2.686-2.686,134.551-2.979,137.227-0.303c3.271,3.574-4.17,25.313-13.389,37.813c-7.744,10.713-8.936,14.883-8.936,31.846v19.346
		h-47.627h-47.627V2797.109z"/>
</g>
</svg>
