<?xml version="1.0" encoding="UTF-8" standalone="no"?>
<svg
   xmlns:dc="http://purl.org/dc/elements/1.1/"
   xmlns:cc="http://creativecommons.org/ns#"
   xmlns:rdf="http://www.w3.org/1999/02/22-rdf-syntax-ns#"
   xmlns:svg="http://www.w3.org/2000/svg"
   xmlns="http://www.w3.org/2000/svg"
   id="svg5570"
   version="1.1"
   viewBox="0 0 512 512"
   height="512mm"
   width="512mm">
  <defs
     id="defs5564">
    <clipPath
       id="clipPath416"
       clipPathUnits="userSpaceOnUse">
      <path
         id="path414"
         d="m 106.521,505.844 h 53.4 v -53.401 h -53.4 z" />
    </clipPath>
    <clipPath
       id="clipPath432"
       clipPathUnits="userSpaceOnUse">
      <path
         id="path430"
         d="m 107.103,505.263 h 53.4 v -53.401 h -53.4 z" />
    </clipPath>
    <clipPath
       id="clipPath452"
       clipPathUnits="userSpaceOnUse">
      <path
         id="path450"
         d="m 121.394,490.97 h 53.401 v -53.4 h -53.401 z" />
    </clipPath>
    <clipPath
       id="clipPath468"
       clipPathUnits="userSpaceOnUse">
      <path
         id="path466"
         d="m 121.976,490.39 h 53.4 v -53.401 h -53.4 z" />
    </clipPath>
    <clipPath
       id="clipPath488"
       clipPathUnits="userSpaceOnUse">
      <path
         id="path486"
         d="M 252.477,497.736 H 303.71 V 458.461 H 252.477 Z" />
    </clipPath>
    <clipPath
       id="clipPath516"
       clipPathUnits="userSpaceOnUse">
      <path
         id="path514"
         d="m 260.136,464.691 h 34.022 v -18.162 h -34.022 z" />
    </clipPath>
    <clipPath
       id="clipPath1186"
       clipPathUnits="userSpaceOnUse">
      <path
         id="path1184"
         d="m 371.012,489.894 h 13.025 v -36.841 h -13.025 z" />
    </clipPath>
    <clipPath
       id="clipPath1238"
       clipPathUnits="userSpaceOnUse">
      <path
         id="path1236"
         d="m 416.701,489.894 h 13.026 v -36.841 h -13.026 z" />
    </clipPath>
    <clipPath
       id="clipPath1290"
       clipPathUnits="userSpaceOnUse">
      <path
         id="path1288"
         d="m 381.949,500.831 h 36.84 v -13.025 h -36.84 z" />
    </clipPath>
    <clipPath
       id="clipPath1342"
       clipPathUnits="userSpaceOnUse">
      <path
         id="path1340"
         d="m 381.949,455.141 h 36.84 v -13.025 h -36.84 z" />
    </clipPath>
    <clipPath
       id="clipPath1378"
       clipPathUnits="userSpaceOnUse">
      <path
         id="path1376"
         d="M 377.82,494.007 H 422.9 V 448.929 H 377.82 Z" />
    </clipPath>
    <clipPath
       id="clipPath1398"
       clipPathUnits="userSpaceOnUse">
      <path
         id="path1396"
         d="m 372.796,499.034 h 55.132 v -28.96 h -55.132 z" />
    </clipPath>
    <clipPath
       id="clipPath1422"
       clipPathUnits="userSpaceOnUse">
      <path
         id="path1420"
         d="m 390.837,480.992 h 19.048 v -10.918 h -19.048 z" />
    </clipPath>
    <clipPath
       id="clipPath2348"
       clipPathUnits="userSpaceOnUse">
      <path
         id="path2346"
         d="m 629.877,480.125 h 17.658 V 462.47 h -17.658 z" />
    </clipPath>
    <clipPath
       id="clipPath2364"
       clipPathUnits="userSpaceOnUse">
      <path
         id="path2362"
         d="m 645.464,464.54 h 17.654 v -17.656 h -17.654 z" />
    </clipPath>
    <clipPath
       id="clipPath2404"
       clipPathUnits="userSpaceOnUse">
      <path
         id="path2402"
         d="m 671.973,484.672 h 11.481 v -11.481 h -11.481 z" />
    </clipPath>
    <clipPath
       id="clipPath2420"
       clipPathUnits="userSpaceOnUse">
      <path
         id="path2418"
         d="m 682.108,494.806 h 11.481 v -11.479 h -11.481 z" />
    </clipPath>
  </defs>
  <metadata
     id="metadata5567">
    <rdf:RDF>
      <cc:Work
         rdf:about="">
        <dc:format>image/svg+xml</dc:format>
        <dc:type
           rdf:resource="http://purl.org/dc/dcmitype/StillImage" />
        <dc:title></dc:title>
      </cc:Work>
    </rdf:RDF>
  </metadata>
  <g
     transform="translate(0,215)"
     id="layer1">
    <g
       style="stroke-width:0.05060491"
       id="g6171"
       transform="matrix(6.9712169,0,0,-6.9712169,-724.48669,3324.4963)">
      <g
         style="stroke-width:0.00282103"
         id="g6398"
         transform="matrix(0.90777441,0,0,0.90777441,-458.7933,45.599418)">
        <g
           style="stroke-width:0.00282103"
           id="g2318"
           transform="translate(646.498,450.2979)">
          <path
             d="m 0,0 c -6.148,0 -11.136,4.986 -11.136,11.136 0,6.151 4.988,11.137 11.136,11.137 6.152,0 11.138,-4.986 11.138,-11.137 C 11.138,4.986 6.152,0 0,0 m 22.96,15.289 -4.063,0.674 c -0.462,1.826 -1.194,3.553 -2.131,5.135 l 2.442,3.423 c 0.471,0.66 0.384,1.659 -0.188,2.233 l -3.481,3.478 c -0.573,0.575 -1.572,0.655 -2.231,0.185 L 9.881,27.97 c -1.58,0.937 -3.307,1.657 -5.134,2.121 l -0.674,4.045 c -0.132,0.797 -0.896,1.446 -1.708,1.446 h -4.888 c -0.81,0 -1.576,-0.649 -1.707,-1.446 L -4.904,30.093 C -6.73,29.629 -8.458,28.908 -10.04,27.97 l -3.424,2.447 c -0.658,0.47 -1.656,0.39 -2.229,-0.185 l -3.481,-3.478 c -0.572,-0.574 -0.656,-1.573 -0.183,-2.233 l 2.447,-3.426 c -0.94,-1.58 -1.658,-3.306 -2.124,-5.132 l -4.002,-0.674 c -0.8,-0.135 -1.409,-0.899 -1.409,-1.706 V 8.691 c 0,-0.81 0.609,-1.572 1.409,-1.707 l 4.019,-0.674 c 0.464,-1.828 1.177,-3.553 2.117,-5.134 l -2.454,-3.424 c -0.471,-0.661 -0.391,-1.659 0.182,-2.232 l 3.479,-3.479 c 0.573,-0.573 1.571,-0.655 2.229,-0.184 l 3.428,2.447 c 1.582,-0.938 3.306,-1.658 5.132,-2.122 l 0.674,-4.045 c 0.131,-0.797 0.897,-1.446 1.707,-1.446 h 4.888 c 0.812,0 1.576,0.649 1.708,1.446 l 0.674,4.043 c 1.827,0.463 3.554,1.185 5.134,2.124 l 3.427,-2.447 c 0.659,-0.471 1.658,-0.389 2.231,0.184 l 3.477,3.479 c 0.574,0.573 0.658,1.571 0.188,2.232 l -2.45,3.426 c 0.938,1.58 1.659,3.306 2.122,5.132 l 4.084,0.674 c 0.797,0.135 1.485,0.897 1.485,1.707 v 4.892 c 0,0.807 -0.688,1.571 -1.485,1.706"
             style="fill:#a9afbb;fill-opacity:1;fill-rule:evenodd;stroke:none;stroke-width:0.00282103"
             id="path2320" />
        </g>
        <g
           style="stroke-width:0.00282103"
           id="g2322"
           transform="translate(665.9473,449.5806)">
          <path
             d="M 0,0 C 0.159,-0.616 0.123,-1.949 0.052,-2.664 -0.019,-3.377 -1.135,-3.409 -1.118,-1.969 -1.103,-0.53 -0.206,0.805 0,0"
             style="fill:#a9afbb;fill-opacity:1;fill-rule:evenodd;stroke:none;stroke-width:0.00282103"
             id="path2324" />
        </g>
        <g
           style="stroke-width:0.00282103"
           id="g2326"
           transform="translate(626.8613,446.7583)">
          <path
             d="M 0,0 C -0.079,0.617 -0.055,2.059 0,2.652 0.054,3.246 0.976,2.486 0.943,1.872 0.912,1.257 0.14,-1.096 0,0"
             style="fill:#a9afbb;fill-opacity:1;fill-rule:evenodd;stroke:none;stroke-width:0.00282103"
             id="path2328" />
        </g>
        <g
           style="stroke-width:0.00282103"
           id="g2330"
           transform="translate(666.0098,478.0513)">
          <path
             d="M 0,0 C 0,0 0.109,-1.407 -0.002,-2.313 -0.113,-3.219 -1.311,-3.154 -1.407,-2.087 -1.505,-1.019 -0.251,0.924 0,0"
             style="fill:#a9afbb;fill-opacity:1;fill-rule:evenodd;stroke:none;stroke-width:0.00282103"
             id="path2332" />
        </g>
        <g
           style="stroke-width:0.00282103"
           id="g2334"
           transform="translate(626.8398,478.0186)">
          <path
             d="M 0,0 C 0,0 -0.122,-1.523 0.018,-2.492 0.156,-3.461 1.661,-3.315 1.612,-2.15 1.562,-0.986 0.183,1.034 0,0"
             style="fill:#a9afbb;fill-opacity:1;fill-rule:evenodd;stroke:none;stroke-width:0.00282103"
             id="path2336" />
        </g>
        <g
           style="stroke-width:0.00282103"
           id="g2338"
           transform="translate(646.498,452.3677)">
          <path
             d="m 0,0 c -6.148,0 -11.136,4.987 -11.136,11.137 0,6.15 4.988,11.137 11.136,11.137 6.152,0 11.138,-4.987 11.138,-11.137 C 11.138,4.987 6.152,0 0,0 m 22.96,15.289 -4.063,0.675 c -0.462,1.826 -1.194,3.553 -2.131,5.135 l 2.442,3.423 c 0.471,0.659 0.384,1.659 -0.188,2.232 l -3.481,3.479 c -0.573,0.574 -1.572,0.655 -2.231,0.184 L 9.881,27.97 c -1.58,0.938 -3.307,1.658 -5.134,2.121 l -0.674,4.046 c -0.132,0.796 -0.896,1.445 -1.708,1.445 h -4.888 c -0.81,0 -1.576,-0.649 -1.707,-1.445 L -4.904,30.093 C -6.73,29.63 -8.458,28.909 -10.04,27.97 l -3.424,2.447 c -0.658,0.471 -1.656,0.39 -2.229,-0.184 l -3.481,-3.479 c -0.572,-0.573 -0.656,-1.573 -0.183,-2.232 l 2.447,-3.427 c -0.94,-1.58 -1.658,-3.305 -2.124,-5.131 l -4.002,-0.675 c -0.8,-0.134 -1.409,-0.898 -1.409,-1.706 V 8.691 c 0,-0.809 0.609,-1.572 1.409,-1.706 l 4.019,-0.674 c 0.464,-1.828 1.177,-3.554 2.117,-5.135 l -2.454,-3.424 c -0.471,-0.661 -0.391,-1.659 0.182,-2.231 l 3.479,-3.479 c 0.573,-0.574 1.571,-0.655 2.229,-0.184 l 3.428,2.446 c 1.582,-0.937 3.306,-1.658 5.132,-2.122 l 0.674,-4.045 c 0.131,-0.796 0.897,-1.445 1.707,-1.445 h 4.888 c 0.812,0 1.576,0.649 1.708,1.445 l 0.674,4.044 c 1.827,0.462 3.554,1.185 5.134,2.123 l 3.427,-2.446 c 0.659,-0.471 1.658,-0.39 2.231,0.184 l 3.477,3.479 c 0.574,0.572 0.658,1.57 0.188,2.231 l -2.45,3.427 c 0.938,1.579 1.659,3.305 2.122,5.132 l 4.084,0.674 c 0.797,0.134 1.485,0.897 1.485,1.706 v 4.892 c 0,0.808 -0.688,1.572 -1.485,1.706"
             style="fill:#dce2e9;fill-opacity:1;fill-rule:evenodd;stroke:none;stroke-width:0.00282103"
             id="path2340" />
        </g>
        <g
           style="stroke-width:0.00282103"
           id="g2342">
          <g
             style="stroke-width:0.00282103"
             id="g2344" />
          <g
             style="stroke-width:0.00282103"
             id="g2356">
            <g
               style="stroke-width:0.00282103"
               clip-path="url(#clipPath2348)"
               id="g2354">
              <g
                 style="stroke-width:0.00282103"
                 transform="translate(630.9131,462.4702)"
                 id="g2352">
                <path
                   d="m 0,0 c -0.572,0 -1.036,0.463 -1.036,1.035 0,9.164 7.457,16.62 16.621,16.62 0.573,0 1.037,-0.464 1.037,-1.035 0,-0.572 -0.464,-1.036 -1.037,-1.036 C 7.562,15.584 1.035,9.058 1.035,1.035 1.035,0.463 0.572,0 0,0"
                   style="fill:#dce2e9;fill-opacity:1;fill-rule:nonzero;stroke:none;stroke-width:0.00282103"
                   id="path2350" />
              </g>
            </g>
          </g>
        </g>
        <g
           style="stroke-width:0.00282103"
           id="g2358">
          <g
             style="stroke-width:0.00282103"
             id="g2360" />
          <g
             style="stroke-width:0.00282103"
             id="g2372">
            <g
               style="stroke-width:0.00282103"
               clip-path="url(#clipPath2364)"
               id="g2370">
              <g
                 style="stroke-width:0.00282103"
                 transform="translate(646.498,446.8843)"
                 id="g2368">
                <path
                   d="m 0,0 c -0.572,0 -1.034,0.464 -1.034,1.036 0,0.571 0.462,1.035 1.034,1.035 8.022,0 14.55,6.527 14.55,14.55 0,0.571 0.463,1.035 1.034,1.035 0.573,0 1.036,-0.464 1.036,-1.035 C 16.62,7.456 9.164,0 0,0"
                   style="fill:#dce2e9;fill-opacity:1;fill-rule:nonzero;stroke:none;stroke-width:0.00282103"
                   id="path2366" />
              </g>
            </g>
          </g>
        </g>
        <g
           style="stroke-width:0.00282103"
           id="g2374"
           transform="translate(682.7832,475.4131)">
          <path
             d="m 0,0 c -4,0 -7.242,3.242 -7.242,7.24 0,3.999 3.242,7.242 7.242,7.242 3.997,0 7.238,-3.243 7.238,-7.242 C 7.238,3.242 3.997,0 0,0 m 14.927,9.94 -2.641,0.439 c -0.302,1.187 -0.777,2.31 -1.388,3.338 l 1.588,2.226 c 0.307,0.429 0.25,1.078 -0.122,1.451 l -2.262,2.262 C 9.729,20.029 9.08,20.083 8.65,19.776 l -2.227,-1.59 c -1.027,0.608 -2.151,1.078 -3.338,1.378 l -0.438,2.631 c -0.085,0.517 -0.583,0.94 -1.11,0.94 h -3.179 c -0.526,0 -1.025,-0.423 -1.109,-0.94 L -3.19,19.566 c -1.188,-0.301 -2.311,-0.771 -3.338,-1.38 l -2.227,1.59 c -0.43,0.307 -1.078,0.253 -1.451,-0.12 l -2.262,-2.262 c -0.372,-0.373 -0.426,-1.022 -0.121,-1.451 l 1.593,-2.228 c -0.611,-1.027 -1.078,-2.149 -1.383,-3.336 l -2.6,-0.439 C -15.5,9.853 -15.896,9.356 -15.896,8.831 V 5.65 c 0,-0.526 0.396,-1.022 0.917,-1.109 l 2.612,-0.439 c 0.303,-1.188 0.764,-2.31 1.376,-3.338 l -1.594,-2.226 c -0.307,-0.43 -0.254,-1.079 0.117,-1.451 l 2.262,-2.263 c 0.373,-0.371 1.021,-0.426 1.451,-0.119 l 2.229,1.59 c 1.027,-0.608 2.148,-1.078 3.336,-1.379 l 0.439,-2.629 c 0.084,-0.519 0.583,-0.941 1.109,-0.941 h 3.179 c 0.527,0 1.025,0.422 1.11,0.941 l 0.438,2.627 c 1.187,0.301 2.311,0.773 3.338,1.381 l 2.227,-1.59 c 0.43,-0.307 1.079,-0.252 1.452,0.119 l 2.261,2.263 c 0.371,0.372 0.427,1.021 0.121,1.451 l -1.591,2.228 c 0.609,1.027 1.077,2.149 1.379,3.336 l 2.655,0.439 c 0.519,0.087 0.967,0.583 0.967,1.109 v 3.181 c 0,0.525 -0.448,1.022 -0.967,1.109"
             style="fill:#ca902b;fill-opacity:1;fill-rule:evenodd;stroke:none;stroke-width:0.00282103"
             id="path2376" />
        </g>
        <g
           style="stroke-width:0.00282103"
           id="g2378"
           transform="translate(695.4287,474.9463)">
          <path
             d="M 0,0 C 0.103,-0.4 0.077,-1.267 0.032,-1.732 -0.013,-2.196 -0.738,-2.217 -0.728,-1.28 -0.718,-0.345 -0.136,0.524 0,0"
             style="fill:#ca902b;fill-opacity:1;fill-rule:evenodd;stroke:none;stroke-width:0.00282103"
             id="path2380" />
        </g>
        <g
           style="stroke-width:0.00282103"
           id="g2382"
           transform="translate(670.0146,473.1108)">
          <path
             d="M 0,0 C -0.052,0.402 -0.037,1.339 0,1.725 0.035,2.111 0.636,1.617 0.614,1.217 0.592,0.817 0.09,-0.712 0,0"
             style="fill:#ca902b;fill-opacity:1;fill-rule:evenodd;stroke:none;stroke-width:0.00282103"
             id="path2384" />
        </g>
        <g
           style="stroke-width:0.00282103"
           id="g2386"
           transform="translate(695.4687,493.4575)">
          <path
             d="M 0,0 C 0,0 0.069,-0.915 -0.002,-1.504 -0.074,-2.092 -0.853,-2.051 -0.916,-1.356 -0.979,-0.663 -0.163,0.602 0,0"
             style="fill:#ca902b;fill-opacity:1;fill-rule:evenodd;stroke:none;stroke-width:0.00282103"
             id="path2388" />
        </g>
        <g
           style="stroke-width:0.00282103"
           id="g2390"
           transform="translate(669.999,493.436)">
          <path
             d="M 0,0 C 0,0 -0.079,-0.99 0.013,-1.62 0.102,-2.25 1.082,-2.155 1.05,-1.398 1.019,-0.641 0.12,0.673 0,0"
             style="fill:#ca902b;fill-opacity:1;fill-rule:evenodd;stroke:none;stroke-width:0.00282103"
             id="path2392" />
        </g>
        <g
           style="stroke-width:0.00282103"
           id="g2394"
           transform="translate(682.7832,476.7588)">
          <path
             d="m 0,0 c -4,0 -7.242,3.243 -7.242,7.241 0,3.998 3.242,7.241 7.242,7.241 3.997,0 7.238,-3.243 7.238,-7.241 C 7.238,3.243 3.997,0 0,0 m 14.927,9.94 -2.641,0.439 c -0.302,1.187 -0.777,2.31 -1.388,3.338 l 1.588,2.227 c 0.307,0.428 0.25,1.078 -0.122,1.451 l -2.262,2.262 C 9.729,20.03 9.08,20.083 8.65,19.776 L 6.423,18.187 c -1.027,0.607 -2.151,1.077 -3.338,1.378 l -0.438,2.63 c -0.085,0.518 -0.583,0.94 -1.11,0.94 h -3.179 c -0.526,0 -1.025,-0.422 -1.109,-0.94 L -3.19,19.567 c -1.188,-0.302 -2.311,-0.772 -3.338,-1.38 l -2.227,1.589 c -0.43,0.307 -1.078,0.254 -1.451,-0.119 l -2.262,-2.262 c -0.372,-0.373 -0.426,-1.023 -0.121,-1.451 l 1.593,-2.228 c -0.611,-1.028 -1.078,-2.15 -1.383,-3.337 l -2.6,-0.439 C -15.5,9.854 -15.896,9.356 -15.896,8.832 V 5.651 c 0,-0.526 0.396,-1.023 0.917,-1.11 l 2.612,-0.438 c 0.303,-1.189 0.764,-2.311 1.376,-3.339 l -1.594,-2.226 c -0.307,-0.43 -0.254,-1.078 0.117,-1.451 l 2.262,-2.261 c 0.373,-0.373 1.021,-0.428 1.451,-0.121 l 2.229,1.591 c 1.027,-0.609 2.148,-1.078 3.336,-1.38 l 0.439,-2.629 c 0.084,-0.518 0.583,-0.94 1.109,-0.94 h 3.179 c 0.527,0 1.025,0.422 1.11,0.94 l 0.438,2.628 c 1.187,0.301 2.311,0.772 3.338,1.381 L 8.65,-5.295 c 0.43,-0.307 1.079,-0.252 1.452,0.121 l 2.261,2.261 c 0.371,0.373 0.427,1.021 0.121,1.451 l -1.591,2.228 c 0.609,1.027 1.077,2.149 1.379,3.337 l 2.655,0.438 c 0.519,0.087 0.967,0.584 0.967,1.11 v 3.181 c 0,0.524 -0.448,1.022 -0.967,1.108"
             style="fill:#ffc52f;fill-opacity:1;fill-rule:evenodd;stroke:none;stroke-width:0.00282103"
             id="path2396" />
        </g>
        <g
           style="stroke-width:0.00282103"
           id="g2398">
          <g
             style="stroke-width:0.00282103"
             id="g2400" />
          <g
             style="stroke-width:0.00282103"
             id="g2412">
            <g
               clip-path="url(#clipPath2404)"
               id="g2410"
               style="opacity:0.80000299;stroke-width:0.00282103">
              <g
                 style="stroke-width:0.00282103"
                 transform="translate(683.4541,473.8638)"
                 id="g2408">
                <path
                   d="m 0,0 c 0,-0.372 -0.302,-0.673 -0.673,-0.673 -5.959,0 -10.808,4.849 -10.808,10.809 0,0.371 0.301,0.673 0.672,0.673 0.372,0 0.674,-0.302 0.674,-0.673 0,-5.218 4.244,-9.461 9.462,-9.461 C -0.302,0.675 0,0.372 0,0"
                   style="fill:#ffc52f;fill-opacity:1;fill-rule:nonzero;stroke:none;stroke-width:0.00282103"
                   id="path2406" />
              </g>
            </g>
          </g>
        </g>
        <g
           style="stroke-width:0.00282103"
           id="g2414">
          <g
             style="stroke-width:0.00282103"
             id="g2416" />
          <g
             style="stroke-width:0.00282103"
             id="g2428">
            <g
               clip-path="url(#clipPath2420)"
               id="g2426"
               style="opacity:0.80000299;stroke-width:0.00282103">
              <g
                 style="stroke-width:0.00282103"
                 transform="translate(693.5889,483.9995)"
                 id="g2424">
                <path
                   d="m 0,0 c 0,-0.373 -0.301,-0.672 -0.673,-0.672 -0.372,0 -0.674,0.299 -0.674,0.671 0,5.217 -4.243,9.462 -9.461,9.462 -0.372,0 -0.672,0.301 -0.672,0.673 0,0.371 0.3,0.673 0.672,0.673 C -4.849,10.807 0,5.959 0,0"
                   style="fill:#ffc52f;fill-opacity:1;fill-rule:nonzero;stroke:none;stroke-width:0.00282103"
                   id="path2422" />
              </g>
            </g>
          </g>
        </g>
      </g>
    </g>
  </g>
</svg>
